<svg xmlns="http://www.w3.org/2000/svg" width="68" height="60" viewBox="0 0 68 60">
    <g fill="none" fill-rule="nonzero">
        <g transform="translate(5.169 2.165)">
            <path d="M20.078 12.963h17.355c3.544 0 6.443 2.89 6.443 6.423v17.301c0 3.533-2.9 6.423-6.443 6.423H20.078c-3.543 0-6.442-2.89-6.442-6.423V19.386c0-3.533 2.899-6.423 6.442-6.423zm0 3.72a2.715 2.715 0 0 0-2.711 2.703v17.301a2.716 2.716 0 0 0 2.711 2.703h17.355a2.716 2.716 0 0 0 2.712-2.703V19.386a2.715 2.715 0 0 0-2.712-2.704H20.078z"/>
            <path d="M20.078 16.682h17.355a2.716 2.716 0 0 1 2.712 2.704v17.301a2.716 2.716 0 0 1-2.712 2.703H20.078a2.716 2.716 0 0 1-2.711-2.703V19.386a2.715 2.715 0 0 1 2.711-2.704zm9.015 4.423v6.607h6.627v-6.607h-6.627z"/>
            <g fill="#F5CD23">
                <path d="M23.571 8.87a3.06 3.06 0 0 0 3.059-3.049 3.06 3.06 0 0 0-6.118 0 3.06 3.06 0 0 0 3.059 3.05zM35.04 6.16A3.06 3.06 0 0 0 38.1 3.111a3.06 3.06 0 0 0-6.117 0 3.06 3.06 0 0 0 3.058 3.05z"/>
            </g>
            <ellipse cx="3.058" cy="23.9" fill="#4A90E2" rx="3.058" ry="3.048"/>
            <g fill="#F5CD23" transform="translate(2.221 25.87)">
                <ellipse cx="3.084" cy="9.126" rx="3.058" ry="3.048"/>
                <ellipse cx="14.808" cy="27.654" rx="3.058" ry="3.048"/>
                <ellipse cx="52.232" cy="12.809" rx="3.058" ry="3.048"/>
                <ellipse cx="52.232" cy="3.112" rx="3.058" ry="3.048"/>
            </g>
            <g fill="#FF4747" transform="translate(25.6 15.615)">
                <ellipse cx="28.854" cy="3.119" rx="3.058" ry="3.048"/>
                <ellipse cx="3.156" cy="36.061" rx="3.058" ry="3.048"/>
            </g>
            <ellipse cx="39.968" cy="53.525" fill="#4A90E2" rx="3.058" ry="3.048"/>
            <path fill="#21D352" d="M29.093 21.105h6.627v6.606h-6.627z"/>
        </g>
        <path fill="#737373" stroke="#FFF" stroke-width=".724" d="M55.56 32.312a4.232 4.232 0 0 0 4.062 3.05c2.331 0 4.228-1.89 4.228-4.215 0-2.323-1.897-4.214-4.228-4.214a4.232 4.232 0 0 0-4.062 3.049l-5.346-.002v-7.917l5.346.001a4.232 4.232 0 0 0 4.062 3.05c2.331 0 4.228-1.891 4.228-4.215s-1.897-4.214-4.228-4.214a4.232 4.232 0 0 0-4.061 3.049l-5.57-.002a7.62 7.62 0 0 0-7.389-5.77h-1.235c.005-.035.01-1.581.012-4.636a4.223 4.223 0 0 0 3.058-4.05c0-2.323-1.896-4.214-4.227-4.214-2.331 0-4.228 1.89-4.228 4.214a4.223 4.223 0 0 0 3.059 4.05l.002 4.473c0 .037-3.044.092-9.133.164v-1.927a4.223 4.223 0 0 0 3.057-4.05c0-2.323-1.896-4.214-4.227-4.214-2.331 0-4.228 1.89-4.228 4.215a4.223 4.223 0 0 0 3.06 4.05v1.926h-2.325c-4.197 0-7.612 3.404-7.612 7.588v3.348l-5.346.001a4.232 4.232 0 0 0-4.062-3.049c-2.33 0-4.227 1.89-4.227 4.215 0 2.323 1.896 4.214 4.227 4.214a4.232 4.232 0 0 0 4.062-3.05h5.347v8.764l-3.1.001a4.232 4.232 0 0 0-4.062-3.049c-2.331 0-4.228 1.891-4.228 4.215s1.897 4.214 4.228 4.214a4.232 4.232 0 0 0 4.062-3.05h3.1v.527a7.58 7.58 0 0 0 3.42 6.33c-.018.08-.028.164-.028.25l.001 6.209a4.223 4.223 0 0 0-3.058 4.049c0 2.323 1.896 4.214 4.227 4.214 2.331 0 4.228-1.89 4.228-4.214a4.223 4.223 0 0 0-3.059-4.05l-.001-5.434a7.624 7.624 0 0 0 1.881.235h7.508v3.352a4.223 4.223 0 0 0-3.058 4.049c0 2.324 1.897 4.214 4.228 4.214 2.33 0 4.227-1.89 4.227-4.214a4.223 4.223 0 0 0-3.059-4.05v-3.351h7.51c.465 0 .92-.044 1.363-.125l.002 5.325a4.223 4.223 0 0 0-3.058 4.049c0 2.323 1.896 4.214 4.227 4.214 2.33 0 4.227-1.89 4.227-4.214a4.223 4.223 0 0 0-3.058-4.05l-.002-6.16a7.645 7.645 0 0 0 3.218-3.471l6.038.001a4.232 4.232 0 0 0 4.062 3.05c2.331 0 4.228-1.89 4.228-4.215 0-2.323-1.897-4.214-4.228-4.214a4.232 4.232 0 0 0-4.061 3.049l-5.393-.002c.03-.271.046-.546.046-.826v-6.54h5.346zm4.062-3.048c1.042 0 1.89.845 1.89 1.883a1.889 1.889 0 0 1-1.89 1.884 1.889 1.889 0 0 1-1.89-1.884c0-1.038.848-1.883 1.89-1.883zM38.32 5.277c0-1.04.847-1.884 1.89-1.884 1.041 0 1.889.845 1.889 1.884a1.889 1.889 0 1 1-3.78 0zm-11.47 2.71c0-1.039.848-1.884 1.89-1.884 1.042 0 1.89.845 1.89 1.884a1.889 1.889 0 0 1-3.78 0zM8.227 27.949a1.889 1.889 0 0 1-1.89-1.883 1.889 1.889 0 0 1 3.78 0 1.889 1.889 0 0 1-1.89 1.883zm2.247 11.096a1.889 1.889 0 0 1-1.89-1.884c0-1.039.848-1.884 1.89-1.884 1.042 0 1.89.845 1.89 1.884a1.889 1.889 0 0 1-1.89 1.884zm13.614 16.644a1.889 1.889 0 0 1-1.89 1.884 1.889 1.889 0 0 1-1.89-1.884c0-1.038.849-1.883 1.89-1.883 1.042 0 1.89.845 1.89 1.883zm11.726-1.847a1.889 1.889 0 0 1-1.89 1.883 1.889 1.889 0 0 1-1.889-1.883c0-1.039.848-1.884 1.89-1.884 1.042 0 1.89.845 1.89 1.884zm11.212 1.847a1.889 1.889 0 0 1-1.89 1.884 1.889 1.889 0 0 1-1.889-1.884c0-1.038.848-1.883 1.89-1.883 1.042 0 1.89.845 1.89 1.883zM42.602 44.11H25.247c-2.908 0-5.274-2.359-5.274-5.258V21.551c0-2.9 2.366-5.258 5.274-5.258h17.355c2.908 0 5.274 2.359 5.274 5.258v17.301c0 2.9-2.366 5.258-5.274 5.258zm17.02-5.149c1.042 0 1.89.845 1.89 1.884a1.889 1.889 0 0 1-1.89 1.884 1.889 1.889 0 0 1-1.89-1.884c0-1.038.848-1.884 1.89-1.884zm0-19.946c1.042 0 1.89.845 1.89 1.884a1.889 1.889 0 0 1-1.89 1.884 1.889 1.889 0 0 1-1.89-1.884c0-1.038.848-1.884 1.89-1.884z"/>
        <path fill="#737373" stroke="#FFF" stroke-width=".724" d="M42.602 17.682H25.247a3.88 3.88 0 0 0-3.88 3.869v17.301a3.88 3.88 0 0 0 3.88 3.87h17.355a3.88 3.88 0 0 0 3.88-3.87V21.551a3.88 3.88 0 0 0-3.88-3.869zm1.543 21.17c0 .848-.692 1.538-1.543 1.538H25.247c-.85 0-1.543-.69-1.543-1.538V21.551c0-.848.693-1.538 1.543-1.538h17.355c.85 0 1.543.69 1.543 1.538v17.301z"/>
        <path fill="#21D352" d="M40.142 22.724h-6.114c-.596 0-1.079.483-1.079 1.08v6.117c0 .596.483 1.079 1.079 1.079h6.114c.595 0 1.078-.483 1.078-1.08v-6.117c0-.596-.483-1.079-1.078-1.079zm-1.079 6.118h-3.957v-3.96h3.957v3.96zM39.892 34.132H35.05c-.646 0-1.17.522-1.17 1.166 0 .643.524 1.165 1.17 1.165h4.843c.646 0 1.17-.522 1.17-1.165 0-.644-.524-1.166-1.17-1.166zM31.513 34.132h-.056c-.645 0-1.168.522-1.168 1.166 0 .643.523 1.165 1.168 1.165h.056c.646 0 1.169-.522 1.169-1.165 0-.644-.523-1.166-1.169-1.166z"/>
    </g>
</svg>
