<svg xmlns="http://www.w3.org/2000/svg" width="68" height="60" viewBox="0 0 68 60">
    <g fill="none" fill-rule="evenodd" stroke-width="1.3">
        <g transform="translate(1 2)">
            <path stroke="#737373" d="M49 3H21"/>
            <path fill="#FFF" stroke="#737373" stroke-linecap="round" stroke-linejoin="round" d="M11 8H0v48h62V8H51"/>
            <path fill="#FFF" stroke="#737373" stroke-linecap="round" stroke-linejoin="round" d="M15 4H4v48h62V4H55"/>
            <rect width="6" height="8" x="15" fill="#FFF" stroke="#737373" rx="1"/>
            <rect width="6" height="8" x="49" fill="#FFF" stroke="#737373" rx="1"/>
            <rect width="10" height="10" x="13" y="18" fill="#21D352" stroke="#21D352" rx="2"/>
            <rect width="10" height="10" x="13" y="36" fill="#21D352" stroke="#21D352" rx="2"/>
            <rect width="10" height="10" x="47" y="18" fill="#21D352" stroke="#21D352" rx="2"/>
            <rect width="10" height="10" x="47" y="36" fill="#21D352" stroke="#21D352" rx="2"/>
            <rect width="10" height="10" x="30" y="18" fill="#21D352" stroke="#21D352" rx="2"/>
            <rect width="10" height="10" x="30" y="36" fill="#21D352" stroke="#21D352" rx="2"/>
        </g>
        <path stroke="#737373" d="M5 14h62"/>
    </g>
</svg>
