<svg xmlns="http://www.w3.org/2000/svg" width="230" height="60" viewBox="0 0 230 60">
    <g fill="none" fill-rule="evenodd">
        <g stroke="#4399FE" stroke-linecap="round" stroke-linejoin="round" stroke-opacity=".8" stroke-width="10">
            <path d="M125 30c0 13.8 11.2 25 25 25s25-11.2 25-25-11.2-25-25-25-25 11.2-25 25v25M205 30h20c0 13.8-11.2 25-25 25s-25-11.2-25-25 11.2-25 25-25"/>
        </g>
        <path fill="#4399FE" d="M101.315 18.783c.174 0 1.498-.008 1.723-.022.225-.015.455-.038.69-.07a7.36 7.36 0 0 0 .696-.131c.228-.055.431-.122.609-.201.177-.08.32-.17.429-.272a.475.475 0 0 0 .163-.359c0-.152-.06-.382-.18-.69-.119-.308-.273-.663-.461-1.065a74.808 74.808 0 0 0-.62-1.288l-.663-1.348 3.891-1.924c.218.5.43 1.022.636 1.565.207.544.39 1.087.55 1.63.159.544.287 1.08.385 1.61a8.21 8.21 0 0 1 .147 1.489c0 .949-.174 1.762-.522 2.44a4.641 4.641 0 0 1-1.424 1.668c-.601.435-1.31.756-2.125.962-.815.207-1.69.31-2.625.31h-1.37l.071-4.304zm3.31 7.445l2.043-2.043 2.11 2.098-2.088 2.097-2.065-2.065-2.043 2.044-2.11-2.098 2.088-2.098 2.065 2.065zm-1.946 3.174l1.935-1.935 1.946 1.946-1.935 1.935-1.946-1.946zM98.75 14.478c.333.906.607 1.64.82 2.201.214.562.401.999.56 1.31.16.312.308.522.446.63a.734.734 0 0 0 .467.164h.272l-.07 4.304h-.158c-.13 0-.279-.007-.446-.022a2.325 2.325 0 0 1-.63-.174 8.892 8.892 0 0 1-.94 2.359 11.693 11.693 0 0 1-1.571 2.13 15.319 15.319 0 0 1-2.087 1.87 18.844 18.844 0 0 1-2.478 1.565l-2.63-3.391c.79-.428 1.54-.88 2.25-1.359.71-.478 1.344-.982 1.902-1.51a8.623 8.623 0 0 0 1.385-1.67 4.593 4.593 0 0 0 .68-1.842c-.109-.376-.216-.73-.32-1.06-.106-.329-.224-.673-.354-1.032a38.1 38.1 0 0 0-.451-1.174c-.17-.424-.375-.918-.614-1.484l3.967-1.815zm-23.875 4.305c.366-.085.654-.212.864-.38.315-.254.589-.599.82-1.033a8.36 8.36 0 0 0 .61-1.517 47.28 47.28 0 0 0 .51-1.831l3.653.685c-.066.268-.136.567-.212.896-.077.33-.145.66-.207.99-.062.33-.112.652-.152.967a6.04 6.04 0 0 0-.054.837c.003.242.036.44.097.592.062.152.162.232.3.24a1.18 1.18 0 0 0 .7-.278c.207-.17.392-.39.555-.658.163-.268.306-.576.429-.923.123-.348.23-.71.32-1.087.091-.377.171-.754.24-1.13.069-.378.132-.733.19-1.066l3.26.543c-.02.232-.053.511-.097.837-.043.326-.08.663-.109 1.011-.029.348-.041.692-.038 1.033.004.34.038.647.104.918.065.272.172.491.32.658.149.167.357.25.625.25.384 0 .685-.073.902-.217.218-.145.374-.343.468-.593.094-.25.134-.536.12-.859a5.74 5.74 0 0 0-.142-1.01 8.837 8.837 0 0 0-.315-1.066c-.13-.358-.263-.697-.397-1.016a15.917 15.917 0 0 0-.391-.864 126.64 126.64 0 0 0-.3-.603l3.218-1.794c.196.428.402.911.62 1.451a19.489 19.489 0 0 1 1.038 3.511c.12.612.18 1.205.18 1.777 0 .79-.106 1.502-.316 2.136a4.219 4.219 0 0 1-.956 1.62c-.428.445-.968.79-1.62 1.032-.652.243-1.42.368-2.304.375-.363 0-.707-.056-1.033-.168a4.349 4.349 0 0 1-1.614-.984 3.397 3.397 0 0 1-.484-.576 3.92 3.92 0 0 1-1.212 1.169 3.845 3.845 0 0 1-1.973.56 3.13 3.13 0 0 1-.978-.131 3.713 3.713 0 0 1-.853-.375 3.344 3.344 0 0 1-.68-.538 2.666 2.666 0 0 1-.456-.62 2.14 2.14 0 0 1-.467.609c-.203.188-.448.35-.734.484s-.612.24-.978.32c-.366.08-.526.12-1.19.12l.119-4.304zm9.685-9.837l-2.044 2.043-2.108-2.098 2.087-2.098L84.56 8.86l2.043-2.044 2.109 2.098-2.087 2.098-2.065-2.065zm1.945-3.174l-1.934 1.935-1.946-1.946 1.935-1.935 1.945 1.946zm-11.75 17.315c-.853-.153-1.384-.268-1.592-.342a4.049 4.049 0 0 1-.842-.413 2.024 2.024 0 0 1-.582-.55c-.21.232-.482.43-.815.593a5.796 5.796 0 0 1-1.12.402 9.484 9.484 0 0 1-1.337.234c-.478.05-.96.076-1.445.076h-.294v-4.304h.294c.464 0 .867-.011 1.212-.033.344-.022.634-.076.87-.163.235-.087.414-.214.537-.38.123-.167.201-.395.234-.685.033-.29.02-.65-.038-1.082a20.965 20.965 0 0 0-.283-1.56l3.87-.956c.065.275.129.603.19.984.062.38.114.771.158 1.174.043.402.069.793.076 1.173.007.38-.011.702-.055.962a.718.718 0 0 0 .289.332c.126.076.259.13.396.163.092.022.224.045.397.07l-.12 4.305zm-4.679 2.75l-2.043 2.043-2.11-2.097 2.088-2.098 2.065 2.065 2.044-2.043 2.108 2.097-2.087 2.098-2.065-2.065zm-13.234 4.74c-1.311 0-2.505-.17-3.581-.506-1.076-.337-1.998-.84-2.766-1.511-.769-.67-1.363-1.506-1.783-2.506-.42-1-.63-2.163-.63-3.489 0-1.195.197-2.406.592-3.63.395-1.225.98-2.468 1.755-3.728l3.153 2.26a12.61 12.61 0 0 0-1.087 2.315c-.167.472-.307.955-.419 1.452-.112.496-.168.969-.168 1.418 0 .515.13.982.39 1.402.262.42.604.787 1.028 1.098.424.312.906.56 1.446.745.54.185 1.089.295 1.646.331a6.28 6.28 0 0 0 1.968-.31 6.121 6.121 0 0 0 1.68-.836c.488-.352.885-.763 1.19-1.234.304-.471.474-.975.51-1.511a6.015 6.015 0 0 0-.255-1.413c-.149-.5-.323-1-.522-1.5-.2-.5-.413-.991-.641-1.473a65.592 65.592 0 0 1-.614-1.331l3.598-2c.043.087.123.255.239.505l.38.826a253.138 253.138 0 0 0 .728 1.57c.21.436.471.754.783.957.312.203.638.305.978.305h.288v4.304h-.288c-.166 0-.319-.01-.456-.027a2.703 2.703 0 0 1-.424-.093 8.622 8.622 0 0 1-.348 1.908 8.29 8.29 0 0 1-.772 1.783 7.726 7.726 0 0 1-1.206 1.565 7.28 7.28 0 0 1-1.663 1.244c-.63.348-1.34.62-2.125.816-.787.195-1.654.293-2.604.293zM56.8 17.053l-2.413-2.413 2.413-2.413 2.413 2.413-2.413 2.413zm-22.565 1.729h-.104c.341 0 .69-.002 1.05-.006.358-.003.706-.022 1.043-.054.337-.033.656-.08.956-.141.301-.062.564-.153.788-.272.225-.12.403-.27.533-.451s.196-.406.196-.674c0-.276-.067-.564-.201-.864-.134-.301-.321-.614-.56-.94-.24-.327-.52-.66-.843-1-.322-.341-.672-.689-1.049-1.044a60.83 60.83 0 0 0-1.179-1.082c-.41-.366-.82-.737-1.234-1.114l.392-3.5 9.141-4.032 1.674 3.706-6.533 3.033c.515.42 1.02.898 1.517 1.435.496.536.938 1.108 1.326 1.717.387.609.7 1.237.94 1.886.24.648.359 1.299.359 1.951 0 .906-.153 1.714-.457 2.424a5.227 5.227 0 0 1-1.255 1.804 5.469 5.469 0 0 1-1.886 1.13 6.881 6.881 0 0 1-2.348.392h-2.266v-4.304zM33.967 4.76l8.316-3.468.597 1.294-9 3.804.087-1.63zm.267 14.022v4.304h-.24c-.34 0-.684-.029-1.032-.087a5.65 5.65 0 0 1-.99-.255 4.049 4.049 0 0 1-.842-.413 2.024 2.024 0 0 1-.581-.55c-.21.232-.482.43-.815.593a5.796 5.796 0 0 1-1.12.402 9.484 9.484 0 0 1-1.337.234c-.478.05-.96.076-1.445.076h-.234v-4.304h.234c.463 0 .867-.011 1.211-.033.345-.022.635-.076.87-.163.236-.087.415-.214.538-.38.123-.167.201-.395.234-.685.032-.29.02-.65-.038-1.082a20.965 20.965 0 0 0-.283-1.56l3.87-.956c.065.275.128.603.19.984.062.38.114.771.158 1.174.043.402.068.793.076 1.173.007.38-.011.702-.055.962a.718.718 0 0 0 .288.332c.127.076.26.13.397.163.138.033.27.052.397.06.127.007.23.01.31.01h.239zm-5.348 7.054l-2.044 2.043-2.108-2.097 2.087-2.098 2.065 2.065 2.043-2.043 2.109 2.097-2.087 2.098-2.065-2.065zm-14.049-7.054c.471 0 .848-.047 1.13-.142.283-.094.5-.21.653-.348a.982.982 0 0 0 .298-.445c.048-.16.071-.305.071-.435 0-.203-.065-.447-.196-.734-.13-.286-.306-.6-.527-.94-.22-.34-.476-.7-.766-1.076-.29-.377-.59-.754-.902-1.13a59.516 59.516 0 0 0-.935-1.104c-.312-.358-.605-.693-.88-1.005l.434-3.707 9.99-4.217 1.597 3.793-7.913 3.261c.689.703 1.27 1.393 1.745 2.071.475.678.89 1.32 1.244 1.93.356.608.678 1.171.968 1.69.29.518.594.965.913 1.342.319.377.68.67 1.081.88.403.21.897.316 1.484.316h1.272v4.304h-.815c-.971 0-1.872-.14-2.701-.419a6.393 6.393 0 0 1-2.267-1.342c-.29.319-.636.589-1.038.81-.402.22-.87.402-1.402.543-.533.142-1.134.245-1.804.31-.67.065-1.415.098-2.234.098h-1.565a28.54 28.54 0 0 1-3.614-.217 17.1 17.1 0 0 1-3.082-.663c-.92-.298-1.714-.676-2.38-1.136-.667-.46-1.174-1.002-1.522-1.625A5.817 5.817 0 0 1 .522 17.7a5.84 5.84 0 0 1-.06-1.76 8.515 8.515 0 0 1 .44-1.854c.225-.638.507-1.308.848-2.01l3.337 1.934c-.123.253-.24.534-.348.842a6.83 6.83 0 0 0-.255.919c-.062.304-.09.589-.087.853.003.264.056.484.157.658.189.355.522.632 1 .831.479.2 1.047.348 1.707.446.66.098 1.378.16 2.157.185.78.025 1.564.038 2.354.038h3.065zM13.391 4.76l8.316-3.468.597 1.294-9 3.804.087-1.63z"/>
        <text fill="#4399FE" font-family="Futura-Medium, Futura" font-size="23" font-weight="400" letter-spacing="-.3" transform="translate(-2 1)">
            <tspan x=".194" y="53">PersianGi</tspan> <tspan x="97.231" y="53">g</tspan>
        </text>
    </g>
</svg>
