<svg xmlns="http://www.w3.org/2000/svg" width="20" height="18" viewBox="0 0 20 18">
    <g fill="none" fill-rule="evenodd">
        <g transform="translate(2 1)">
            <path stroke="#FFF" stroke-linecap="round" stroke-linejoin="round" stroke-width="1.3" d="M3.667 12h-2c-.734 0-1.334-.655-1.334-1.455V6.182c0-.8.6-1.455 1.334-1.455h12.666c.734 0 1.334.655 1.334 1.455v4.363c0 .8-.6 1.455-1.334 1.455h-2M3.667 3.273V.363h6.666l2 2.182v.728"/>
            <path stroke="#FFF" stroke-linecap="round" stroke-linejoin="round" stroke-width="1.3" d="M3.667 9.818h8.667v5.818H3.667z"/>
            <ellipse cx="2.333" cy="6.909" fill="#FFF" rx="1" ry="1"/>
            <path stroke="#FFF" stroke-linecap="round" stroke-linejoin="round" stroke-width="1.3" d="M6 13.867h4M6 11.733h4"/>
            <path d="M10.333.364v2.181h2"/>
        </g>
    </g>
</svg>
