<svg xmlns="http://www.w3.org/2000/svg" width="20" height="18" viewBox="0 0 20 18">
    <g fill="none" fill-rule="evenodd">
        <g stroke="#FFF" stroke-linecap="round" stroke-linejoin="round" stroke-width="1.3">
            <path d="M10.75 15.632H5.125c-2.071 0-3.75-1.65-3.75-3.685V9.491c0-4.175 3-4.912 4.5-4.912h2.25c.729 0 1.5.368 1.5 1.105v.369c0 .736-.75 1.105-1.5 1.105h-1.5s0 2.25-1.5 2.25"/>
            <path d="M8.875 11.21h4.875c.621 0 1.125.496 1.125 1.106 0 .61-.504 1.105-1.125 1.105h-3"/>
            <path d="M8.875 13.421h1.875c.621 0 1.125.495 1.125 1.105 0 .611-.504 1.106-1.125 1.106H9.625M18.625 5H9.547M5.125 4.519V3.336c0-.621.504-1.125 1.125-1.125H17.5c.621 0 1.125.504 1.125 1.125v6.75c0 .621-.504 1.125-1.125 1.125H6.25a1.125 1.125 0 0 1-1.125-1.125v-.61M16.125 8h-2.25"/>
        </g>
    </g>
</svg>
