<svg xmlns="http://www.w3.org/2000/svg" width="16" height="16" viewBox="0 0 16 16">
    <g fill="none" fill-rule="evenodd" stroke="#737373" stroke-linejoin="round" stroke-width="1.3">
        <path d="M14.343 6.763l1.583-.914-2.166-3.753-1.6.924a6.428 6.428 0 0 0-2.03-1.177V0H5.797v1.842a6.483 6.483 0 0 0-2.031 1.177l-1.6-.925L0 5.847l1.583.914a5.917 5.917 0 0 0 0 2.364L0 10.039l2.167 3.753 1.6-.925a6.435 6.435 0 0 0 2.031 1.176v1.846h4.333v-1.842a6.507 6.507 0 0 0 2.031-1.176l1.6.923 2.167-3.752-1.583-.915a5.978 5.978 0 0 0-.003-2.364z"/>
        <circle cx="7.889" cy="7.889" r="2.889"/>
    </g>
</svg>
