<?xml version="1.0" encoding="UTF-8"?>
<svg width="20px" height="20px" viewBox="0 0 20 20" version="1.1" xmlns="http://www.w3.org/2000/svg" xmlns:xlink="http://www.w3.org/1999/xlink">
    <!-- Generator: sketchtool 51.2 (57519) - http://www.bohemiancoding.com/sketch -->
    <title>95E24527-B591-461D-8928-A7DC693DF1FF</title>
    <desc>Created with sketchtool.</desc>
    <defs></defs>
    <g id="Symbols" stroke="none" stroke-width="1" fill="none" fill-rule="evenodd" stroke-linecap="round" stroke-linejoin="round">
        <g id="icons/button/icon/actions/move" stroke="#4A4A4A">
            <g id="file-arborescence.3.3.1" transform="translate(2.000000, 0.000000)">
                <g id="Outline_Icons_1_">
                    <g id="Outline_Icons">
                        <g id="Group">
                            <polygon id="Shape" stroke-width="1.3" points="16.5789474 18.9128727 9.84210526 18.9128727 9.84210526 11.2820856 14.0526316 11.2820856 16.5789474 13.5713218"></polygon>
                            <polyline id="Shape" stroke-width="1.3" points="13.2105263 11.2820856 13.2105263 14.2820856 16.5789474 14.2820856"></polyline>
                            <polygon id="Shape-Copy-2" stroke-width="1.3" points="16.5789474 8.35731713 9.84210526 8.35731713 9.84210526 0.726530093 14.0526316 0.726530093 16.5789474 3.0157662"></polygon>
                            <polyline id="Shape-Copy" stroke-width="1.3" points="13.2105263 0.726530093 13.2105263 3.72653009 16.5789474 3.72653009"></polyline>
                            <path d="M0,0.418659722 L0,1.25430787" id="Shape" stroke-width="1.05555556"></path>
                            <path d="M0,5.43254861 L0,6.26819676" id="Shape" stroke-width="1.05555556"></path>
                            <polyline id="Shape" stroke-width="1.05555556" points="0 2.92388887 0 3.75953702 0.842105263 3.75953702"></polyline>
                            <path d="M0,7.93949306 L0,8.7751412" id="Shape" stroke-width="1.05555556"></path>
                            <path d="M0,10.4464375 L0,11.2820856" id="Shape" stroke-width="1.05555556"></path>
                            <path d="M0,12.9533819 L0,13.7890301" id="Shape" stroke-width="1.05555556"></path>
                            <polyline id="Shape" stroke-width="1.05555556" points="0 15.4638885 0 16.2995366 0.842105263 16.2995366"></polyline>
                            <path d="M2.94736842,3.76125231 L3.78947368,3.76125231" id="Shape" stroke-width="1.05555556"></path>
                            <path d="M5.47368421,3.76125231 L6.31578947,3.76125231" id="Shape" stroke-width="1.05555556"></path>
                            <path d="M2.94736842,16.2959745 L3.78947368,16.2959745" id="Shape" stroke-width="1.05555556"></path>
                            <path d="M5.47368421,16.2959745 L6.31578947,16.2959745" id="Shape" stroke-width="1.05555556"></path>
                        </g>
                    </g>
                </g>
            </g>
        </g>
    </g>
</svg>