<?xml version="1.0" encoding="UTF-8"?>
<svg width="20px" height="20px" viewBox="0 0 20 20" version="1.1" xmlns="http://www.w3.org/2000/svg" xmlns:xlink="http://www.w3.org/1999/xlink">
    <!-- Generator: sketchtool 51.2 (57519) - http://www.bohemiancoding.com/sketch -->
    <title>13F2416E-CD6A-43C9-9248-E004FB83CAEA</title>
    <desc>Created with sketchtool.</desc>
    <defs></defs>
    <g id="Symbols" stroke="none" stroke-width="1" fill="none" fill-rule="evenodd">
        <g id="icons/button/icon/actions/www">
            <g id="Group-2-Copy" transform="translate(0.000000, 2.000000)">
                <path d="M6.7569071,15.038068 L7.13962544,13.1823291 L7.89171148,13.1823291 L7.14852587,16.0972188 L6.49656963,16.0972188 L5.94474319,14.2637309 L5.39291674,16.0972188 L4.74318561,16.0972188 L4,13.1823291 L4.75208604,13.1823291 L5.13035416,15.0358429 L5.66437975,13.1823291 L6.22733173,13.1823291 L6.7569071,15.038068 Z M10.8110514,15.038068 L11.1937697,13.1823291 L11.9458557,13.1823291 L11.2026701,16.0972188 L10.5507139,16.0972188 L9.99888745,14.2637309 L9.44706101,16.0972188 L8.79732987,16.0972188 L8.05414426,13.1823291 L8.8062303,13.1823291 L9.18449842,15.0358429 L9.71852401,13.1823291 L10.281476,13.1823291 L10.8110514,15.038068 Z M14.8651956,15.038068 L15.247914,13.1823291 L16,13.1823291 L15.2568144,16.0972188 L14.6048581,16.0972188 L14.0530317,14.2637309 L13.5012053,16.0972188 L12.8514741,16.0972188 L12.1082885,13.1823291 L12.8603746,13.1823291 L13.2386427,15.0358429 L13.7726683,13.1823291 L14.3356202,13.1823291 L14.8651956,15.038068 Z" id="www" fill="#4A4A4A"></path>
                <path d="M15.8217391,11.475 C15.8217391,11.475 19.5652174,10.99815 19.5652174,7.40945 C19.5652174,5.1357 17.6443478,3.26655 15.2565217,3.3524 C14.3234783,1.4263 12.3234783,0.09265 10,0.09265 C6.90173913,0.09265 4.37565217,2.45905 4.19478261,5.44255 C2.25391304,5.0456 0.434782609,6.48975 0.434782609,8.4252 C0.434782609,11.52345 3.76173913,11.475 3.76173913,11.475" id="Shape" stroke="#4A4A4A" stroke-width="1.3" stroke-linecap="round" stroke-linejoin="round"></path>
                <path d="M10,3.8 L10,10.8" id="Shape" stroke="#4A4A4A" stroke-width="1.3" stroke-linecap="round" stroke-linejoin="round"></path>
                <polyline id="Shape" stroke="#4A4A4A" stroke-width="1.3" stroke-linecap="round" stroke-linejoin="round" points="12.6086957 6.35 10 3.8 7.39130435 6.35"></polyline>
            </g>
        </g>
    </g>
</svg>