<svg xmlns="http://www.w3.org/2000/svg" width="28" height="28" viewBox="0 0 28 28">
    <g fill="none" fill-rule="evenodd">
        <path fill="#B4CDF4" d="M25 7V5.3a1.8 1.8 0 0 0-1.8-1.8H8.694a1.75 1.75 0 0 1-1.75-1.75A1.75 1.75 0 0 0 5.194 0H1.8A1.8 1.8 0 0 0 0 1.8v23.575C0 26.825.93 28 2.083 28H23.2a1.8 1.8 0 0 0 1.8-1.8V7z"/>
        <path fill="#D8E4F8" d="M26.216 8H4.202a1.8 1.8 0 0 0-1.78 1.535L0 25.778C0 26.854.963 28 1.767 28h22.276a1.8 1.8 0 0 0 1.784-1.564l2.174-16.4A1.8 1.8 0 0 0 26.216 8z"/>
    </g>
</svg>
