<svg xmlns="http://www.w3.org/2000/svg" xmlns:xlink="http://www.w3.org/1999/xlink" width="30" height="30" viewBox="0 0 30 30">
    <defs>
        <circle id="a" cx="15" cy="15" r="15"/>
    </defs>
    <g fill="none" fill-rule="evenodd">
        <mask id="b" fill="#fff">
            <use xlink:href="#a"/>
        </mask>
        <use fill="#F3F7FD" xlink:href="#a"/>
        <g mask="url(#b)">
            <path fill="#EAC3A2" d="M11.727 16.723h6.545v8.298h-6.545z"/>
            <path fill="#F1D9C5" d="M21 10.085v4.426c0 3.355-2.692 6.085-6 6.085s-6-2.73-6-6.085v-4.426h12z"/>
            <path fill="#4B9CFD" d="M27 27.792c0-.919-.67-1.962-1.5-2.33l-7.227-3.207A5.426 5.426 0 0 1 15 23.362a5.376 5.376 0 0 1-3.263-1.107l-7.235 3.207C3.672 25.83 3 26.874 3 27.792v1.653c0 .307.245.555.546.555h22.908a.547.547 0 0 0 .546-.555v-1.653z"/>
            <path fill="#737373" d="M9 10.084c0-1.832 1.383-3.819 3.084-4.435l4.04-1.463a.625.625 0 0 1 .754.305l.85 1.722c1.807 0 3.272 1.49 3.272 3.319v3.32c0-1.529-1.221-2.767-2.727-2.767h-6.546C10.221 10.085 9 11.323 9 12.851v-2.767z"/>
            <path fill="#2476FF" d="M15 24.468a6.998 6.998 0 0 0 4.465-1.608l-1.192-.605A5.426 5.426 0 0 1 15 23.362a5.376 5.376 0 0 1-3.263-1.107l-1.2.607A6.998 6.998 0 0 0 15 24.468z"/>
        </g>
    </g>
</svg>
