<svg xmlns="http://www.w3.org/2000/svg" width="24" height="24" viewBox="0 0 24 24">
    <defs>
        <linearGradient id="a" x1="0%" x2="102%" y1="0%" y2="101%">
            <stop offset="0%" stop-color="#5F93F7"/>
            <stop offset="100%" stop-color="#6B60E5"/>
        </linearGradient>
    </defs>
    <g fill="none" fill-rule="evenodd">
        <g transform="translate(2 14)">
            <path d="M.205 3.896L2.455.87C2.698.391 3.369 0 3.948 0h11.316c.58 0 1.292.373 1.583.827l2.945 3.07H.205z"/>
            <rect width="20" height="4" y="3.5" fill="url(#a)" rx="1"/>
            <circle cx="2.8" cy="5.5" r="1" fill="#FFF"/>
            <path stroke="#FFF" stroke-linecap="round" stroke-width="1.6" d="M15.5 5.5h2"/>
        </g>
        <path stroke="url(#a)" stroke-linejoin="round" stroke-width="1.8" d="M22 10.57c0-2.197-2.008-4.004-4.504-3.92C16.52 4.79 14.428 3.5 12 3.5c-3.24 0-5.88 2.286-6.068 5.169C3.902 8.287 2 9.683 2 11.552 2 14.545 5.478 14.5 5.478 14.5h12.61S22 14.038 22 10.57z"/>
        <path stroke="#6579ED" stroke-linecap="round" stroke-linejoin="round" stroke-width="1.6" d="M12 7v5M9 9l3-3 3 3"/>
    </g>
</svg>
