<svg xmlns="http://www.w3.org/2000/svg" width="16" height="16" viewBox="0 0 16 16">
    <path fill="#737373" fill-rule="nonzero" d="M4.011 4.653L2.896 5.766V2.892h2.878L4.64 4.024l-.086.085.086.086 2.634 2.629v.43H6.79L4.183 4.653l-.087-.087-.085.087zm3.263 1.829v-3.59H6.12l-1.22 1.217 2.375 2.373zM4.096 4.91L2.894 6.11v1.144h3.549L4.096 4.911zm4.647 1.554l2.36-2.356-1.236-1.234H8.743v3.59zm2.704-2.356l-.087.086L8.743 6.81v.444H9.2l2.612-2.607.086-.086.087.086 1.143 1.142V2.876h-2.92l1.151 1.15.087.083zm-3.93-1.46V6.724L8 7.207l.5-.499V2.632h1.123L8 1.012 6.363 2.649h1.154zm2.029 4.605h3.583v-1.12l-1.23-1.23-2.353 2.35zm-2.347.753L6.69 7.5H2.653V6.352L1 8.002 2.651 9.65V8.473h4.08l.468-.466zm1.544 1.56v3.525h1.146l1.192-1.191-2.338-2.334zM4.1 11.098L6.49 8.716H2.896v1.179L4.1 11.098zm7.798 0l1.23-1.229V8.714H9.513l2.386 2.384zm1.475-1.474L15 8l-1.626-1.623V7.5H9.301L8.8 8l.471.47h4.104v1.153zM11.9 11.44l-.086-.085-2.646-2.64h-.424v.508l2.597 2.592.086.086-.086.087-1.106 1.104h2.895v-2.88l-1.143 1.143-.087.085zM8.5 13.336V9.324l-.509-.507-.465.465v4.054h-1.19l1.655 1.651 1.655-1.65H8.5zm-3.946-1.434l.086-.086L7.281 9.18v-.464h-.448l-2.646 2.639-.086.085-.085-.085-1.122-1.12v2.857h2.852L4.64 11.988l-.086-.086zm2.727-2.378L4.9 11.902l1.192 1.192h1.19v-3.57z"/>
</svg>
