<svg xmlns="http://www.w3.org/2000/svg" width="16" height="16" viewBox="0 0 16 16">
    <g fill="#737373" fill-rule="nonzero">
        <path d="M14.708 8a.292.292 0 0 0 0-.583h-2.041v-1.75h2.041a.292.292 0 0 0 0-.584h-2.041v-.875a.876.876 0 0 0-.875-.875h-.875V1.292a.292.292 0 0 0-.584 0v2.041H8V1.292a.292.292 0 0 0-.583 0v2.041h-1.75V1.292a.292.292 0 0 0-.584 0v2.041h-.875a.876.876 0 0 0-.875.875v.875H1.292a.292.292 0 0 0 0 .584h2.041V8H1.292a.292.292 0 0 0 0 .583h2.041v1.75H1.292a.292.292 0 0 0 0 .584h2.041v.875c0 .482.393.875.875.875h.875v2.041a.292.292 0 0 0 .584 0v-2.041H8v2.041a.292.292 0 0 0 .583 0v-2.041h1.75v2.041a.292.292 0 0 0 .584 0v-2.041h.875a.876.876 0 0 0 .875-.875v-.875h2.041a.292.292 0 0 0 0-.584h-2.041V8h2.041zm-9.625 2.042V5.958c0-.482.393-.875.875-.875h4.084c.482 0 .875.393.875.875v4.084a.876.876 0 0 1-.875.875H5.958a.876.876 0 0 1-.875-.875z"/>
        <path d="M6.542 6.833h2.333a.292.292 0 0 0 0-.583H6.542a.292.292 0 0 0 0 .583zM6.542 8h1.166a.292.292 0 0 0 0-.583H6.542a.292.292 0 0 0 0 .583zM8 9.458c0 .161.13.292.292.292h1.166a.292.292 0 0 0 0-.583H8.292A.292.292 0 0 0 8 9.458z"/>
    </g>
</svg>
