<svg xmlns="http://www.w3.org/2000/svg" width="16" height="16" viewBox="0 0 16 16">
    <path fill="#737373" fill-rule="nonzero" d="M14.952 8.686l-2.097-3.853C12.6 4.366 12.005 4 11.5 4H3.975c-.518 0-1.093.395-1.31.9L1.032 8.719A.395.395 0 0 0 1 8.875v1.875C1 11.99 1.942 13 3.1 13h9.8c1.158 0 2.1-1.01 2.1-2.25V8.875a.39.39 0 0 0-.048-.189zM12.2 11.5h-2.1c-.193 0-.35-.168-.35-.375s.157-.375.35-.375h2.1c.193 0 .35.168.35.375s-.157.375-.35.375zm-10.305-3l1.406-3.287c.104-.243.425-.463.674-.463H11.5c.261 0 .619.22.75.461L14.041 8.5H1.895z"/>
</svg>
