<svg xmlns="http://www.w3.org/2000/svg" width="14" height="14" viewBox="0 0 14 14">
    <g fill="#737373" fill-rule="nonzero">
        <path d="M1.503 5.5c.827 0 1.502.656 1.502 1.461 0 .806-.675 1.462-1.502 1.462C.675 8.42 0 7.764 0 6.959 0 6.156.675 5.5 1.503 5.5zm6.69-4.327c.372 0 .734.034 1.084.098a1.596 1.596 0 0 0-.009.189c0 1.121.94 2.037 2.093 2.037a2.1 2.1 0 0 0 1.216-.381 5.565 5.565 0 0 1 1.417 3.26l-2.37.071c-.198-1.67-1.663-2.973-3.432-2.973-.498 0-.977.103-1.404.292L5.603 1.767a5.886 5.886 0 0 1 2.59-.594z"/>
        <path d="M11.442 11.077c.827 0 1.5.656 1.5 1.462 0 .805-.674 1.461-1.5 1.461-.828 0-1.503-.656-1.503-1.461.002-.806.677-1.462 1.503-1.462zm-6.57.402a5.733 5.733 0 0 1-2.194-2.836c.553-.367.917-.984.917-1.684 0-.726-.395-1.366-.985-1.726a5.696 5.696 0 0 1 2.205-3.007l1.25 1.964a3.326 3.326 0 0 0-1.328 2.646c0 1.063.512 2.011 1.305 2.627l-1.17 2.016z"/>
        <path d="M14 7.234a5.564 5.564 0 0 1-1.59 3.499 2.13 2.13 0 0 0-.967-.232c-1.101 0-2.006.833-2.088 1.882a5.934 5.934 0 0 1-3.706-.457l1.18-2.003c.418.177.88.273 1.363.273 1.776 0 3.248-1.317 3.434-2.996L14 7.234zM11.361 0c.827 0 1.503.656 1.503 1.461 0 .806-.676 1.462-1.503 1.462-.827 0-1.502-.656-1.502-1.462C9.862.656 10.537 0 11.36 0z"/>
    </g>
</svg>
