<svg xmlns="http://www.w3.org/2000/svg" width="16" height="16" viewBox="0 0 16 16">
    <path fill="#737373" fill-rule="nonzero" d="M12.95 5.667c.152 0 .275-.131.275-.292 0-.161-.123-.292-.275-.292h-1.1V3.917h1.1c.152 0 .275-.131.275-.292 0-.161-.123-.292-.275-.292h-1.1V1.292c0-.161-.123-.292-.275-.292h-7.15c-.152 0-.275.13-.275.292v2.041h-1.1c-.152 0-.275.131-.275.292 0 .161.123.292.275.292h1.1v1.166h-1.1c-.152 0-.275.131-.275.292 0 .161.123.292.275.292h1.1v1.166h-1.1c-.152 0-.275.131-.275.292 0 .161.123.292.275.292h1.1v1.166h-1.1c-.152 0-.275.131-.275.292 0 .161.123.292.275.292h1.1v1.166h-1.1c-.152 0-.275.131-.275.292 0 .161.123.292.275.292h1.1v1.166h-1.1c-.152 0-.275.131-.275.292 0 .161.123.292.275.292h1.1v2.041c0 .161.123.292.275.292h7.15c.152 0 .275-.13.275-.292v-2.041h1.1c.152 0 .275-.131.275-.292 0-.161-.123-.292-.275-.292h-1.1v-1.166h1.1c.152 0 .275-.131.275-.292 0-.161-.123-.292-.275-.292h-1.1V9.167h1.1c.152 0 .275-.131.275-.292 0-.161-.123-.292-.275-.292h-1.1V7.417h1.1c.152 0 .275-.131.275-.292 0-.161-.123-.292-.275-.292h-1.1V5.667h1.1zm-2.2 7.875c0 .16-.123.291-.275.291h-1.65a.27.27 0 0 1-.195-.085L8 13.08l-.63.669a.267.267 0 0 1-.195.085h-1.65c-.152 0-.275-.13-.275-.291V2.458c0-.16.123-.291.275-.291h1.65c.073 0 .143.03.195.085l.63.669.63-.669a.267.267 0 0 1 .195-.085h1.65c.152 0 .275.13.275.291v11.084z"/>
</svg>
